<?xml version="1.0" encoding="UTF-8"?>
<svg xmlns="http://www.w3.org/2000/svg" width="1017" height="470" viewBox="125 391 1017 470" role="img" aria-labelledby="title desc" shape-rendering="geometricPrecision" text-rendering="geometricPrecision">
  <title id="title">Context Vault Engine logo</title>
  <desc id="desc">Vector-traced logo with circuit-style monogram, outlined text, cyan accent strokes, and dark technical background. Text and logo artwork are converted to editable SVG paths rather than embedded as a raster image.</desc>
  <defs>
    <radialGradient id="background" cx="37%" cy="48%" r="72%">
      <stop offset="0%" stop-color="#061928"/>
      <stop offset="55%" stop-color="#03101b"/>
      <stop offset="100%" stop-color="#000811"/>
    </radialGradient>
    <filter id="texture" x="0" y="0" width="100%" height="100%">
      <feTurbulence type="fractalNoise" baseFrequency="0.85" numOctaves="2" seed="26" result="noise"/>
      <feColorMatrix in="noise" type="matrix" values="0 0 0 0 0.03  0 0 0 0 0.08  0 0 0 0 0.13  0 0 0 .13 0"/>
    </filter>
    <filter id="whiteBlur" x="-8%" y="-8%" width="116%" height="116%">
      <feGaussianBlur stdDeviation="2.0"/>
    </filter>
    <filter id="cyanBlur" x="-8%" y="-8%" width="116%" height="116%">
      <feGaussianBlur stdDeviation="2.7"/>
    </filter>
  </defs>
<g id="context-vault-engine-logo" fill-rule="evenodd" clip-rule="evenodd">
    <path id="white-glow" d="M243.0,506.0 L229.0,520.0 L228.0,522.0 L228.0,732.0 L243.0,747.0 L245.0,747.0 L246.0,748.0 L388.0,748.0 L388.0,737.0 L249.0,737.0 L240.0,729.0 L238.0,725.0 L238.0,527.0 L239.0,525.0 L247.0,517.0 L249.0,516.0 L388.0,516.0 L388.0,505.0 L246.0,505.0 L245.0,506.0 Z
M695.0,479.0 L689.0,485.0 L686.0,492.0 L686.0,537.0 L690.0,545.0 L693.0,548.0 L699.0,551.0 L702.0,551.0 L703.0,552.0 L739.0,552.0 L740.0,551.0 L746.0,550.0 L751.0,546.0 L752.0,546.0 L757.0,536.0 L757.0,492.0 L754.0,485.0 L748.0,479.0 L744.0,478.0 L743.0,477.0 L739.0,477.0 L738.0,476.0 L704.0,476.0 L703.0,477.0 L700.0,477.0 L699.0,478.0 Z
M925.0,480.0 L919.0,486.0 L918.0,488.0 L918.0,491.0 L917.0,492.0 L917.0,537.0 L921.0,545.0 L926.0,549.0 L930.0,551.0 L934.0,551.0 L935.0,552.0 L969.0,552.0 L970.0,551.0 L973.0,551.0 L974.0,550.0 L978.0,549.0 L984.0,543.0 L985.0,541.0 L985.0,538.0 L986.0,537.0 L986.0,531.0 L976.0,531.0 L975.0,532.0 L975.0,536.0 L974.0,538.0 L972.0,540.0 L968.0,542.0 L936.0,542.0 L932.0,540.0 L928.0,535.0 L928.0,520.0 L929.0,519.0 L933.0,519.0 L934.0,518.0 L969.0,518.0 L970.0,519.0 L982.0,519.0 L983.0,518.0 L986.0,518.0 L986.0,492.0 L985.0,491.0 L985.0,488.0 L982.0,483.0 L979.0,480.0 L973.0,477.0 L970.0,477.0 L969.0,476.0 L935.0,476.0 L934.0,477.0 L928.0,478.0 L926.0,480.0 Z
M686.0,623.0 L682.0,627.0 L680.0,631.0 L680.0,634.0 L679.0,635.0 L679.0,639.0 L680.0,640.0 L690.0,640.0 L692.0,633.0 L694.0,631.0 L698.0,629.0 L725.0,629.0 L726.0,630.0 L728.0,630.0 L733.0,636.0 L733.0,640.0 L734.0,641.0 L734.0,650.0 L733.0,651.0 L727.0,651.0 L726.0,652.0 L717.0,652.0 L716.0,651.0 L697.0,651.0 L696.0,652.0 L690.0,652.0 L689.0,653.0 L685.0,654.0 L682.0,657.0 L681.0,657.0 L677.0,665.0 L677.0,681.0 L680.0,688.0 L682.0,690.0 L689.0,694.0 L694.0,694.0 L695.0,695.0 L699.0,695.0 L700.0,694.0 L723.0,694.0 L724.0,693.0 L728.0,692.0 L732.0,688.0 L734.0,689.0 L734.0,694.0 L744.0,694.0 L744.0,689.0 L745.0,688.0 L745.0,682.0 L744.0,681.0 L744.0,633.0 L741.0,627.0 L736.0,622.0 L732.0,621.0 L731.0,620.0 L727.0,620.0 L726.0,619.0 L698.0,619.0 L697.0,620.0 L693.0,620.0 Z
M299.0,453.0 L204.0,453.0 L203.0,454.0 L197.0,455.0 L195.0,457.0 L194.0,457.0 L188.0,464.0 L187.0,466.0 L187.0,470.0 L186.0,471.0 L186.0,477.0 L187.0,478.0 L187.0,490.0 L186.0,491.0 L186.0,516.0 L187.0,517.0 L186.0,519.0 L186.0,601.0 L185.0,602.0 L183.0,602.0 L179.0,605.0 L175.0,613.0 L175.0,620.0 L176.0,621.0 L176.0,623.0 L178.0,625.0 L178.0,626.0 L184.0,631.0 L186.0,631.0 L187.0,632.0 L194.0,632.0 L195.0,631.0 L197.0,631.0 L204.0,625.0 L205.0,621.0 L206.0,620.0 L206.0,612.0 L204.0,608.0 L199.0,603.0 L195.0,601.0 L195.0,469.0 L196.0,467.0 L201.0,462.0 L203.0,462.0 L204.0,461.0 L300.0,461.0 L300.0,454.0 Z
M590.0,453.0 L586.0,458.0 L583.0,465.0 L583.0,535.0 L588.0,545.0 L595.0,550.0 L597.0,550.0 L598.0,551.0 L602.0,551.0 L603.0,552.0 L652.0,552.0 L653.0,551.0 L656.0,551.0 L663.0,548.0 L668.0,543.0 L670.0,539.0 L670.0,537.0 L671.0,536.0 L671.0,525.0 L660.0,525.0 L660.0,531.0 L659.0,532.0 L658.0,536.0 L654.0,540.0 L650.0,541.0 L649.0,542.0 L606.0,542.0 L605.0,541.0 L602.0,541.0 L600.0,540.0 L596.0,536.0 L595.0,534.0 L595.0,529.0 L594.0,528.0 L594.0,471.0 L595.0,470.0 L595.0,467.0 L597.0,463.0 L599.0,461.0 L603.0,459.0 L606.0,459.0 L607.0,458.0 L648.0,458.0 L649.0,459.0 L652.0,459.0 L654.0,460.0 L658.0,464.0 L659.0,466.0 L659.0,469.0 L660.0,470.0 L660.0,476.0 L671.0,476.0 L671.0,465.0 L670.0,464.0 L670.0,461.0 L668.0,457.0 L663.0,452.0 L657.0,449.0 L654.0,449.0 L653.0,448.0 L602.0,448.0 L601.0,449.0 L595.0,450.0 Z
M703.0,487.0 L705.0,487.0 L706.0,486.0 L737.0,486.0 L741.0,488.0 L744.0,491.0 L746.0,495.0 L746.0,533.0 L744.0,537.0 L741.0,540.0 L737.0,542.0 L706.0,542.0 L705.0,541.0 L701.0,540.0 L699.0,538.0 L699.0,537.0 L697.0,535.0 L697.0,529.0 L696.0,528.0 L696.0,520.0 L697.0,519.0 L696.0,517.0 L696.0,506.0 L697.0,505.0 L697.0,502.0 L696.0,500.0 L697.0,499.0 L697.0,494.0 L698.0,492.0 Z
M394.0,412.0 L394.0,423.0 L395.0,424.0 L492.0,424.0 L495.0,427.0 L495.0,522.0 L496.0,523.0 L507.0,523.0 L507.0,423.0 L505.0,419.0 L500.0,414.0 L493.0,411.0 L395.0,411.0 Z
M258.0,411.0 L160.0,411.0 L159.0,412.0 L156.0,412.0 L152.0,414.0 L148.0,418.0 L145.0,425.0 L145.0,523.0 L157.0,523.0 L157.0,428.0 L161.0,424.0 L258.0,424.0 Z
M145.0,725.0 L145.0,828.0 L148.0,834.0 L154.0,839.0 L158.0,840.0 L159.0,841.0 L258.0,841.0 L258.0,829.0 L239.0,829.0 L238.0,828.0 L213.0,828.0 L212.0,829.0 L208.0,829.0 L207.0,828.0 L197.0,828.0 L196.0,829.0 L174.0,829.0 L172.0,828.0 L171.0,829.0 L164.0,829.0 L163.0,828.0 L161.0,828.0 L157.0,824.0 L157.0,725.0 Z
M507.0,725.0 L496.0,725.0 L495.0,726.0 L495.0,825.0 L492.0,828.0 L484.0,828.0 L483.0,829.0 L464.0,829.0 L463.0,828.0 L460.0,828.0 L459.0,829.0 L453.0,829.0 L452.0,828.0 L442.0,828.0 L441.0,829.0 L437.0,829.0 L436.0,828.0 L420.0,828.0 L419.0,829.0 L394.0,829.0 L394.0,840.0 L395.0,841.0 L493.0,841.0 L500.0,838.0 L505.0,833.0 L507.0,829.0 Z
M581.0,592.0 L582.0,598.0 L584.0,601.0 L584.0,603.0 L588.0,611.0 L589.0,616.0 L594.0,626.0 L595.0,631.0 L597.0,634.0 L597.0,636.0 L599.0,639.0 L599.0,641.0 L601.0,644.0 L601.0,646.0 L605.0,654.0 L606.0,659.0 L609.0,664.0 L610.0,669.0 L612.0,672.0 L612.0,674.0 L614.0,677.0 L614.0,679.0 L616.0,682.0 L616.0,684.0 L618.0,687.0 L620.0,694.0 L635.0,694.0 L637.0,690.0 L637.0,688.0 L639.0,685.0 L639.0,683.0 L641.0,680.0 L641.0,678.0 L643.0,675.0 L643.0,673.0 L645.0,670.0 L645.0,668.0 L647.0,665.0 L647.0,663.0 L649.0,660.0 L649.0,658.0 L651.0,655.0 L651.0,653.0 L653.0,650.0 L653.0,648.0 L655.0,645.0 L655.0,643.0 L657.0,640.0 L657.0,638.0 L659.0,635.0 L659.0,633.0 L661.0,630.0 L661.0,628.0 L663.0,625.0 L663.0,623.0 L666.0,618.0 L667.0,613.0 L669.0,610.0 L669.0,608.0 L673.0,600.0 L675.0,592.0 L663.0,592.0 L662.0,597.0 L660.0,600.0 L660.0,602.0 L658.0,605.0 L657.0,610.0 L655.0,613.0 L655.0,615.0 L653.0,618.0 L653.0,620.0 L651.0,623.0 L651.0,625.0 L649.0,628.0 L649.0,630.0 L645.0,638.0 L644.0,643.0 L642.0,646.0 L641.0,651.0 L639.0,654.0 L639.0,656.0 L637.0,659.0 L637.0,661.0 L635.0,664.0 L635.0,666.0 L631.0,674.0 L630.0,679.0 L628.0,681.0 L626.0,680.0 L626.0,678.0 L622.0,670.0 L621.0,665.0 L619.0,662.0 L618.0,657.0 L614.0,649.0 L614.0,647.0 L611.0,641.0 L611.0,639.0 L609.0,636.0 L608.0,631.0 L606.0,628.0 L606.0,626.0 L604.0,623.0 L604.0,621.0 L600.0,613.0 L600.0,611.0 L597.0,605.0 L596.0,600.0 L594.0,597.0 L593.0,592.0 Z
M465.0,750.0 L429.0,714.0 L429.0,713.0 L426.0,710.0 L424.0,710.0 L419.0,715.0 L418.0,715.0 L418.0,716.0 L455.0,753.0 L455.0,781.0 L449.0,787.0 L447.0,788.0 L360.0,788.0 L359.0,787.0 L355.0,787.0 L350.0,781.0 L343.0,779.0 L342.0,780.0 L339.0,780.0 L337.0,781.0 L333.0,785.0 L331.0,789.0 L331.0,795.0 L332.0,796.0 L332.0,798.0 L339.0,804.0 L348.0,804.0 L350.0,803.0 L355.0,797.0 L450.0,797.0 L451.0,796.0 L453.0,796.0 L459.0,792.0 L459.0,791.0 L463.0,787.0 L464.0,783.0 L465.0,782.0 Z
M335.0,460.0 L335.0,462.0 L334.0,463.0 L334.0,468.0 L338.0,473.0 L340.0,473.0 L341.0,474.0 L346.0,474.0 L347.0,473.0 L349.0,473.0 L355.0,467.0 L448.0,467.0 L450.0,468.0 L455.0,473.0 L455.0,500.0 L419.0,536.0 L419.0,538.0 L420.0,538.0 L424.0,543.0 L426.0,543.0 L464.0,505.0 L464.0,502.0 L465.0,501.0 L465.0,473.0 L461.0,465.0 L452.0,458.0 L355.0,458.0 L353.0,457.0 L352.0,455.0 L341.0,455.0 Z
M776.0,477.0 L776.0,552.0 L786.0,552.0 L787.0,551.0 L787.0,495.0 L793.0,488.0 L797.0,486.0 L823.0,486.0 L824.0,487.0 L826.0,487.0 L831.0,492.0 L831.0,494.0 L832.0,495.0 L832.0,551.0 L833.0,552.0 L843.0,552.0 L843.0,492.0 L842.0,491.0 L841.0,486.0 L839.0,484.0 L839.0,483.0 L836.0,480.0 L830.0,477.0 L827.0,477.0 L826.0,476.0 L800.0,476.0 L799.0,477.0 L796.0,477.0 L789.0,482.0 L787.0,481.0 L786.0,477.0 Z
M763.0,620.0 L763.0,675.0 L764.0,676.0 L764.0,681.0 L767.0,687.0 L771.0,691.0 L775.0,693.0 L777.0,693.0 L778.0,694.0 L783.0,694.0 L784.0,695.0 L792.0,695.0 L793.0,694.0 L795.0,694.0 L796.0,695.0 L804.0,695.0 L805.0,694.0 L811.0,693.0 L817.0,688.0 L819.0,689.0 L819.0,694.0 L830.0,694.0 L830.0,620.0 L819.0,620.0 L819.0,674.0 L818.0,675.0 L818.0,677.0 L814.0,682.0 L807.0,685.0 L784.0,685.0 L783.0,684.0 L779.0,683.0 L777.0,681.0 L775.0,677.0 L775.0,673.0 L774.0,672.0 L774.0,620.0 Z
M996.0,477.0 L996.0,478.0 L999.0,481.0 L999.0,482.0 L1002.0,485.0 L1005.0,490.0 L1009.0,494.0 L1009.0,495.0 L1021.0,510.0 L1023.0,514.0 L995.0,550.0 L995.0,552.0 L1006.0,552.0 L1008.0,551.0 L1013.0,543.0 L1016.0,540.0 L1016.0,539.0 L1019.0,536.0 L1019.0,535.0 L1029.0,522.0 L1030.0,522.0 L1035.0,527.0 L1035.0,528.0 L1038.0,531.0 L1038.0,532.0 L1041.0,535.0 L1041.0,536.0 L1044.0,539.0 L1044.0,540.0 L1047.0,543.0 L1047.0,544.0 L1053.0,552.0 L1066.0,552.0 L1066.0,551.0 L1062.0,547.0 L1059.0,542.0 L1055.0,538.0 L1055.0,537.0 L1037.0,514.0 L1039.0,510.0 L1042.0,507.0 L1042.0,506.0 L1045.0,503.0 L1045.0,502.0 L1048.0,499.0 L1051.0,494.0 L1055.0,490.0 L1055.0,489.0 L1058.0,486.0 L1058.0,485.0 L1061.0,482.0 L1064.0,477.0 L1051.0,477.0 L1051.0,478.0 L1048.0,481.0 L1046.0,485.0 L1043.0,488.0 L1041.0,492.0 L1031.0,505.0 L1029.0,505.0 L1028.0,504.0 L1028.0,503.0 L1019.0,492.0 L1017.0,488.0 L1011.0,481.0 L1009.0,477.0 Z
M1084.0,456.0 L1084.0,475.0 L1083.0,476.0 L1075.0,476.0 L1073.0,477.0 L1073.0,486.0 L1083.0,486.0 L1084.0,487.0 L1084.0,535.0 L1085.0,536.0 L1086.0,542.0 L1090.0,547.0 L1098.0,551.0 L1103.0,551.0 L1104.0,552.0 L1119.0,552.0 L1120.0,551.0 L1122.0,551.0 L1122.0,542.0 L1121.0,541.0 L1101.0,541.0 L1096.0,536.0 L1096.0,534.0 L1095.0,533.0 L1095.0,487.0 L1096.0,486.0 L1122.0,486.0 L1122.0,477.0 L1120.0,477.0 L1119.0,476.0 L1110.0,476.0 L1109.0,477.0 L1107.0,477.0 L1106.0,476.0 L1096.0,476.0 L1095.0,475.0 L1095.0,456.0 L1093.0,455.0 L1087.0,455.0 L1086.0,456.0 Z
M867.0,455.0 L866.0,456.0 L866.0,476.0 L865.0,477.0 L854.0,477.0 L854.0,485.0 L855.0,486.0 L865.0,486.0 L866.0,487.0 L866.0,535.0 L867.0,536.0 L868.0,542.0 L872.0,547.0 L880.0,551.0 L885.0,551.0 L886.0,552.0 L901.0,552.0 L903.0,551.0 L903.0,541.0 L884.0,541.0 L878.0,536.0 L878.0,534.0 L877.0,533.0 L877.0,487.0 L878.0,486.0 L903.0,486.0 L903.0,477.0 L899.0,477.0 L898.0,476.0 L895.0,476.0 L894.0,477.0 L878.0,476.0 L877.0,475.0 L877.0,455.0 Z
M893.0,598.0 L892.0,599.0 L892.0,619.0 L891.0,620.0 L881.0,620.0 L881.0,629.0 L891.0,629.0 L892.0,630.0 L892.0,677.0 L893.0,678.0 L893.0,682.0 L895.0,686.0 L900.0,691.0 L904.0,693.0 L906.0,693.0 L907.0,694.0 L929.0,694.0 L929.0,692.0 L930.0,691.0 L930.0,685.0 L929.0,684.0 L910.0,684.0 L908.0,683.0 L904.0,678.0 L904.0,675.0 L903.0,674.0 L903.0,631.0 L905.0,629.0 L929.0,629.0 L930.0,622.0 L929.0,620.0 L905.0,620.0 L903.0,618.0 L903.0,598.0 Z
M187.0,740.0 L187.0,743.0 L186.0,744.0 L186.0,759.0 L187.0,760.0 L186.0,782.0 L187.0,783.0 L187.0,787.0 L189.0,791.0 L194.0,797.0 L201.0,800.0 L300.0,800.0 L300.0,795.0 L299.0,794.0 L299.0,792.0 L202.0,792.0 L200.0,791.0 L195.0,785.0 L195.0,741.0 L191.0,738.0 Z
M852.0,587.0 L852.0,694.0 L863.0,694.0 L863.0,587.0 Z
M282.0,621.0 L282.0,632.0 L386.0,632.0 L389.0,629.0 L389.0,624.0 L386.0,621.0 Z
M928.0,494.0 L930.0,490.0 L932.0,488.0 L936.0,486.0 L967.0,486.0 L971.0,488.0 L973.0,490.0 L975.0,494.0 L975.0,508.0 L974.0,509.0 L970.0,509.0 L969.0,510.0 L962.0,510.0 L961.0,509.0 L950.0,509.0 L949.0,510.0 L945.0,510.0 L944.0,509.0 L928.0,509.0 L927.0,508.0 Z
M688.0,668.0 L690.0,664.0 L695.0,661.0 L733.0,661.0 L734.0,662.0 L734.0,667.0 L733.0,668.0 L733.0,677.0 L732.0,679.0 L728.0,683.0 L726.0,684.0 L723.0,684.0 L722.0,685.0 L696.0,685.0 L695.0,684.0 L693.0,684.0 L688.0,678.0 Z
M189.0,609.0 L193.0,609.0 L198.0,615.0 L198.0,618.0 L197.0,620.0 L194.0,623.0 L192.0,623.0 L191.0,624.0 L187.0,623.0 L184.0,619.0 L184.0,613.0 Z" fill="#ffffff" opacity="0.22" filter="url(#whiteBlur)"/>
    <path id="cyan-glow" d="M420.0,539.0 L416.0,538.0 L415.0,537.0 L408.0,537.0 L404.0,539.0 L398.0,546.0 L279.0,546.0 L273.0,551.0 L271.0,555.0 L271.0,698.0 L272.0,699.0 L272.0,701.0 L277.0,706.0 L279.0,707.0 L398.0,707.0 L404.0,714.0 L408.0,716.0 L414.0,716.0 L415.0,715.0 L417.0,715.0 L424.0,709.0 L424.0,707.0 L425.0,706.0 L425.0,699.0 L423.0,695.0 L419.0,691.0 L415.0,690.0 L414.0,689.0 L408.0,689.0 L404.0,691.0 L399.0,697.0 L283.0,697.0 L281.0,695.0 L281.0,558.0 L285.0,555.0 L398.0,555.0 L404.0,562.0 L406.0,563.0 L409.0,563.0 L410.0,564.0 L413.0,564.0 L414.0,563.0 L417.0,563.0 L419.0,561.0 L420.0,561.0 L423.0,558.0 L424.0,554.0 L425.0,553.0 L425.0,547.0 L424.0,546.0 L424.0,544.0 Z
M766.0,758.0 L761.0,764.0 L761.0,779.0 L760.0,780.0 L760.0,787.0 L761.0,788.0 L761.0,792.0 L762.0,794.0 L766.0,798.0 L768.0,799.0 L772.0,799.0 L773.0,800.0 L775.0,799.0 L788.0,799.0 L791.0,797.0 L793.0,797.0 L794.0,798.0 L794.0,809.0 L790.0,813.0 L771.0,813.0 L767.0,809.0 L767.0,806.0 L762.0,806.0 L761.0,807.0 L762.0,813.0 L766.0,817.0 L768.0,818.0 L771.0,818.0 L772.0,819.0 L789.0,819.0 L790.0,818.0 L793.0,818.0 L798.0,814.0 L800.0,810.0 L800.0,757.0 L794.0,757.0 L793.0,759.0 L791.0,759.0 L788.0,757.0 L769.0,757.0 L768.0,758.0 Z
M990.0,758.0 L985.0,763.0 L985.0,766.0 L984.0,767.0 L984.0,790.0 L985.0,791.0 L986.0,795.0 L991.0,799.0 L995.0,799.0 L996.0,800.0 L998.0,800.0 L999.0,799.0 L1001.0,799.0 L1002.0,800.0 L1011.0,800.0 L1012.0,799.0 L1016.0,799.0 L1020.0,797.0 L1023.0,792.0 L1023.0,788.0 L1017.0,788.0 L1017.0,791.0 L1013.0,794.0 L995.0,794.0 L993.0,793.0 L990.0,789.0 L990.0,782.0 L991.0,781.0 L1022.0,781.0 L1023.0,780.0 L1023.0,766.0 L1022.0,765.0 L1021.0,761.0 L1019.0,759.0 L1015.0,757.0 L992.0,757.0 Z
M589.0,741.0 L589.0,799.0 L632.0,799.0 L632.0,794.0 L596.0,794.0 L595.0,793.0 L595.0,774.0 L596.0,773.0 L627.0,773.0 L628.0,772.0 L627.0,770.0 L627.0,767.0 L596.0,767.0 L595.0,766.0 L595.0,747.0 L596.0,746.0 L632.0,746.0 L632.0,741.0 Z
M770.0,763.0 L772.0,763.0 L773.0,762.0 L788.0,762.0 L794.0,767.0 L794.0,788.0 L790.0,793.0 L788.0,794.0 L772.0,794.0 L767.0,790.0 L767.0,781.0 L766.0,780.0 L766.0,775.0 L767.0,774.0 L767.0,766.0 Z
M452.0,623.0 L452.0,630.0 L454.0,632.0 L457.0,632.0 L458.0,633.0 L504.0,633.0 L508.0,630.0 L508.0,623.0 L504.0,620.0 L462.0,620.0 L461.0,621.0 L454.0,621.0 Z
M452.0,660.0 L452.0,667.0 L456.0,670.0 L504.0,670.0 L508.0,667.0 L508.0,661.0 L506.0,658.0 L455.0,658.0 Z
M452.0,587.0 L452.0,593.0 L456.0,596.0 L504.0,596.0 L508.0,593.0 L508.0,586.0 L506.0,584.0 L455.0,584.0 L453.0,585.0 Z
M901.0,757.0 L901.0,799.0 L907.0,799.0 L906.0,797.0 L906.0,783.0 L907.0,782.0 L906.0,769.0 L907.0,768.0 L907.0,766.0 L910.0,763.0 L912.0,763.0 L913.0,762.0 L927.0,762.0 L928.0,763.0 L930.0,763.0 L932.0,765.0 L933.0,767.0 L933.0,799.0 L939.0,799.0 L939.0,765.0 L937.0,761.0 L935.0,759.0 L931.0,757.0 L913.0,757.0 L908.0,760.0 L906.0,759.0 L906.0,757.0 Z
M677.0,757.0 L677.0,799.0 L682.0,799.0 L682.0,769.0 L683.0,768.0 L683.0,766.0 L686.0,763.0 L688.0,763.0 L689.0,762.0 L703.0,762.0 L704.0,763.0 L706.0,763.0 L708.0,765.0 L709.0,767.0 L709.0,799.0 L715.0,799.0 L715.0,766.0 L714.0,765.0 L713.0,761.0 L711.0,759.0 L707.0,757.0 L689.0,757.0 L684.0,760.0 L682.0,759.0 L682.0,757.0 Z
M990.0,767.0 L991.0,765.0 L995.0,762.0 L1012.0,762.0 L1014.0,763.0 L1017.0,767.0 L1017.0,775.0 L1016.0,776.0 L991.0,776.0 L990.0,775.0 Z
M848.0,757.0 L847.0,758.0 L847.0,799.0 L853.0,799.0 L853.0,757.0 Z
M189.0,712.0 L186.0,715.0 L186.0,721.0 L189.0,723.0 L192.0,723.0 L195.0,721.0 L195.0,715.0 L193.0,713.0 Z
M190.0,689.0 L186.0,692.0 L186.0,698.0 L189.0,700.0 L192.0,700.0 L195.0,698.0 L195.0,692.0 L193.0,690.0 Z
M188.0,667.0 L186.0,669.0 L186.0,675.0 L189.0,677.0 L192.0,677.0 L195.0,675.0 L195.0,669.0 L192.0,667.0 Z
M187.0,645.0 L186.0,646.0 L186.0,652.0 L189.0,654.0 L193.0,654.0 L195.0,652.0 L195.0,646.0 L191.0,644.0 Z
M849.0,739.0 L847.0,740.0 L847.0,747.0 L848.0,748.0 L852.0,748.0 L854.0,747.0 L854.0,740.0 L852.0,739.0 Z" fill="#00d8ff" opacity="0.38" filter="url(#cyanBlur)"/>
    <path id="white-trace" d="M243.0,506.0 L229.0,520.0 L228.0,522.0 L228.0,732.0 L243.0,747.0 L245.0,747.0 L246.0,748.0 L388.0,748.0 L388.0,737.0 L249.0,737.0 L240.0,729.0 L238.0,725.0 L238.0,527.0 L239.0,525.0 L247.0,517.0 L249.0,516.0 L388.0,516.0 L388.0,505.0 L246.0,505.0 L245.0,506.0 Z
M695.0,479.0 L689.0,485.0 L686.0,492.0 L686.0,537.0 L690.0,545.0 L693.0,548.0 L699.0,551.0 L702.0,551.0 L703.0,552.0 L739.0,552.0 L740.0,551.0 L746.0,550.0 L751.0,546.0 L752.0,546.0 L757.0,536.0 L757.0,492.0 L754.0,485.0 L748.0,479.0 L744.0,478.0 L743.0,477.0 L739.0,477.0 L738.0,476.0 L704.0,476.0 L703.0,477.0 L700.0,477.0 L699.0,478.0 Z
M925.0,480.0 L919.0,486.0 L918.0,488.0 L918.0,491.0 L917.0,492.0 L917.0,537.0 L921.0,545.0 L926.0,549.0 L930.0,551.0 L934.0,551.0 L935.0,552.0 L969.0,552.0 L970.0,551.0 L973.0,551.0 L974.0,550.0 L978.0,549.0 L984.0,543.0 L985.0,541.0 L985.0,538.0 L986.0,537.0 L986.0,531.0 L976.0,531.0 L975.0,532.0 L975.0,536.0 L974.0,538.0 L972.0,540.0 L968.0,542.0 L936.0,542.0 L932.0,540.0 L928.0,535.0 L928.0,520.0 L929.0,519.0 L933.0,519.0 L934.0,518.0 L969.0,518.0 L970.0,519.0 L982.0,519.0 L983.0,518.0 L986.0,518.0 L986.0,492.0 L985.0,491.0 L985.0,488.0 L982.0,483.0 L979.0,480.0 L973.0,477.0 L970.0,477.0 L969.0,476.0 L935.0,476.0 L934.0,477.0 L928.0,478.0 L926.0,480.0 Z
M686.0,623.0 L682.0,627.0 L680.0,631.0 L680.0,634.0 L679.0,635.0 L679.0,639.0 L680.0,640.0 L690.0,640.0 L692.0,633.0 L694.0,631.0 L698.0,629.0 L725.0,629.0 L726.0,630.0 L728.0,630.0 L733.0,636.0 L733.0,640.0 L734.0,641.0 L734.0,650.0 L733.0,651.0 L727.0,651.0 L726.0,652.0 L717.0,652.0 L716.0,651.0 L697.0,651.0 L696.0,652.0 L690.0,652.0 L689.0,653.0 L685.0,654.0 L682.0,657.0 L681.0,657.0 L677.0,665.0 L677.0,681.0 L680.0,688.0 L682.0,690.0 L689.0,694.0 L694.0,694.0 L695.0,695.0 L699.0,695.0 L700.0,694.0 L723.0,694.0 L724.0,693.0 L728.0,692.0 L732.0,688.0 L734.0,689.0 L734.0,694.0 L744.0,694.0 L744.0,689.0 L745.0,688.0 L745.0,682.0 L744.0,681.0 L744.0,633.0 L741.0,627.0 L736.0,622.0 L732.0,621.0 L731.0,620.0 L727.0,620.0 L726.0,619.0 L698.0,619.0 L697.0,620.0 L693.0,620.0 Z
M299.0,453.0 L204.0,453.0 L203.0,454.0 L197.0,455.0 L195.0,457.0 L194.0,457.0 L188.0,464.0 L187.0,466.0 L187.0,470.0 L186.0,471.0 L186.0,477.0 L187.0,478.0 L187.0,490.0 L186.0,491.0 L186.0,516.0 L187.0,517.0 L186.0,519.0 L186.0,601.0 L185.0,602.0 L183.0,602.0 L179.0,605.0 L175.0,613.0 L175.0,620.0 L176.0,621.0 L176.0,623.0 L178.0,625.0 L178.0,626.0 L184.0,631.0 L186.0,631.0 L187.0,632.0 L194.0,632.0 L195.0,631.0 L197.0,631.0 L204.0,625.0 L205.0,621.0 L206.0,620.0 L206.0,612.0 L204.0,608.0 L199.0,603.0 L195.0,601.0 L195.0,469.0 L196.0,467.0 L201.0,462.0 L203.0,462.0 L204.0,461.0 L300.0,461.0 L300.0,454.0 Z
M590.0,453.0 L586.0,458.0 L583.0,465.0 L583.0,535.0 L588.0,545.0 L595.0,550.0 L597.0,550.0 L598.0,551.0 L602.0,551.0 L603.0,552.0 L652.0,552.0 L653.0,551.0 L656.0,551.0 L663.0,548.0 L668.0,543.0 L670.0,539.0 L670.0,537.0 L671.0,536.0 L671.0,525.0 L660.0,525.0 L660.0,531.0 L659.0,532.0 L658.0,536.0 L654.0,540.0 L650.0,541.0 L649.0,542.0 L606.0,542.0 L605.0,541.0 L602.0,541.0 L600.0,540.0 L596.0,536.0 L595.0,534.0 L595.0,529.0 L594.0,528.0 L594.0,471.0 L595.0,470.0 L595.0,467.0 L597.0,463.0 L599.0,461.0 L603.0,459.0 L606.0,459.0 L607.0,458.0 L648.0,458.0 L649.0,459.0 L652.0,459.0 L654.0,460.0 L658.0,464.0 L659.0,466.0 L659.0,469.0 L660.0,470.0 L660.0,476.0 L671.0,476.0 L671.0,465.0 L670.0,464.0 L670.0,461.0 L668.0,457.0 L663.0,452.0 L657.0,449.0 L654.0,449.0 L653.0,448.0 L602.0,448.0 L601.0,449.0 L595.0,450.0 Z
M703.0,487.0 L705.0,487.0 L706.0,486.0 L737.0,486.0 L741.0,488.0 L744.0,491.0 L746.0,495.0 L746.0,533.0 L744.0,537.0 L741.0,540.0 L737.0,542.0 L706.0,542.0 L705.0,541.0 L701.0,540.0 L699.0,538.0 L699.0,537.0 L697.0,535.0 L697.0,529.0 L696.0,528.0 L696.0,520.0 L697.0,519.0 L696.0,517.0 L696.0,506.0 L697.0,505.0 L697.0,502.0 L696.0,500.0 L697.0,499.0 L697.0,494.0 L698.0,492.0 Z
M394.0,412.0 L394.0,423.0 L395.0,424.0 L492.0,424.0 L495.0,427.0 L495.0,522.0 L496.0,523.0 L507.0,523.0 L507.0,423.0 L505.0,419.0 L500.0,414.0 L493.0,411.0 L395.0,411.0 Z
M258.0,411.0 L160.0,411.0 L159.0,412.0 L156.0,412.0 L152.0,414.0 L148.0,418.0 L145.0,425.0 L145.0,523.0 L157.0,523.0 L157.0,428.0 L161.0,424.0 L258.0,424.0 Z
M145.0,725.0 L145.0,828.0 L148.0,834.0 L154.0,839.0 L158.0,840.0 L159.0,841.0 L258.0,841.0 L258.0,829.0 L239.0,829.0 L238.0,828.0 L213.0,828.0 L212.0,829.0 L208.0,829.0 L207.0,828.0 L197.0,828.0 L196.0,829.0 L174.0,829.0 L172.0,828.0 L171.0,829.0 L164.0,829.0 L163.0,828.0 L161.0,828.0 L157.0,824.0 L157.0,725.0 Z
M507.0,725.0 L496.0,725.0 L495.0,726.0 L495.0,825.0 L492.0,828.0 L484.0,828.0 L483.0,829.0 L464.0,829.0 L463.0,828.0 L460.0,828.0 L459.0,829.0 L453.0,829.0 L452.0,828.0 L442.0,828.0 L441.0,829.0 L437.0,829.0 L436.0,828.0 L420.0,828.0 L419.0,829.0 L394.0,829.0 L394.0,840.0 L395.0,841.0 L493.0,841.0 L500.0,838.0 L505.0,833.0 L507.0,829.0 Z
M581.0,592.0 L582.0,598.0 L584.0,601.0 L584.0,603.0 L588.0,611.0 L589.0,616.0 L594.0,626.0 L595.0,631.0 L597.0,634.0 L597.0,636.0 L599.0,639.0 L599.0,641.0 L601.0,644.0 L601.0,646.0 L605.0,654.0 L606.0,659.0 L609.0,664.0 L610.0,669.0 L612.0,672.0 L612.0,674.0 L614.0,677.0 L614.0,679.0 L616.0,682.0 L616.0,684.0 L618.0,687.0 L620.0,694.0 L635.0,694.0 L637.0,690.0 L637.0,688.0 L639.0,685.0 L639.0,683.0 L641.0,680.0 L641.0,678.0 L643.0,675.0 L643.0,673.0 L645.0,670.0 L645.0,668.0 L647.0,665.0 L647.0,663.0 L649.0,660.0 L649.0,658.0 L651.0,655.0 L651.0,653.0 L653.0,650.0 L653.0,648.0 L655.0,645.0 L655.0,643.0 L657.0,640.0 L657.0,638.0 L659.0,635.0 L659.0,633.0 L661.0,630.0 L661.0,628.0 L663.0,625.0 L663.0,623.0 L666.0,618.0 L667.0,613.0 L669.0,610.0 L669.0,608.0 L673.0,600.0 L675.0,592.0 L663.0,592.0 L662.0,597.0 L660.0,600.0 L660.0,602.0 L658.0,605.0 L657.0,610.0 L655.0,613.0 L655.0,615.0 L653.0,618.0 L653.0,620.0 L651.0,623.0 L651.0,625.0 L649.0,628.0 L649.0,630.0 L645.0,638.0 L644.0,643.0 L642.0,646.0 L641.0,651.0 L639.0,654.0 L639.0,656.0 L637.0,659.0 L637.0,661.0 L635.0,664.0 L635.0,666.0 L631.0,674.0 L630.0,679.0 L628.0,681.0 L626.0,680.0 L626.0,678.0 L622.0,670.0 L621.0,665.0 L619.0,662.0 L618.0,657.0 L614.0,649.0 L614.0,647.0 L611.0,641.0 L611.0,639.0 L609.0,636.0 L608.0,631.0 L606.0,628.0 L606.0,626.0 L604.0,623.0 L604.0,621.0 L600.0,613.0 L600.0,611.0 L597.0,605.0 L596.0,600.0 L594.0,597.0 L593.0,592.0 Z
M465.0,750.0 L429.0,714.0 L429.0,713.0 L426.0,710.0 L424.0,710.0 L419.0,715.0 L418.0,715.0 L418.0,716.0 L455.0,753.0 L455.0,781.0 L449.0,787.0 L447.0,788.0 L360.0,788.0 L359.0,787.0 L355.0,787.0 L350.0,781.0 L343.0,779.0 L342.0,780.0 L339.0,780.0 L337.0,781.0 L333.0,785.0 L331.0,789.0 L331.0,795.0 L332.0,796.0 L332.0,798.0 L339.0,804.0 L348.0,804.0 L350.0,803.0 L355.0,797.0 L450.0,797.0 L451.0,796.0 L453.0,796.0 L459.0,792.0 L459.0,791.0 L463.0,787.0 L464.0,783.0 L465.0,782.0 Z
M335.0,460.0 L335.0,462.0 L334.0,463.0 L334.0,468.0 L338.0,473.0 L340.0,473.0 L341.0,474.0 L346.0,474.0 L347.0,473.0 L349.0,473.0 L355.0,467.0 L448.0,467.0 L450.0,468.0 L455.0,473.0 L455.0,500.0 L419.0,536.0 L419.0,538.0 L420.0,538.0 L424.0,543.0 L426.0,543.0 L464.0,505.0 L464.0,502.0 L465.0,501.0 L465.0,473.0 L461.0,465.0 L452.0,458.0 L355.0,458.0 L353.0,457.0 L352.0,455.0 L341.0,455.0 Z
M776.0,477.0 L776.0,552.0 L786.0,552.0 L787.0,551.0 L787.0,495.0 L793.0,488.0 L797.0,486.0 L823.0,486.0 L824.0,487.0 L826.0,487.0 L831.0,492.0 L831.0,494.0 L832.0,495.0 L832.0,551.0 L833.0,552.0 L843.0,552.0 L843.0,492.0 L842.0,491.0 L841.0,486.0 L839.0,484.0 L839.0,483.0 L836.0,480.0 L830.0,477.0 L827.0,477.0 L826.0,476.0 L800.0,476.0 L799.0,477.0 L796.0,477.0 L789.0,482.0 L787.0,481.0 L786.0,477.0 Z
M763.0,620.0 L763.0,675.0 L764.0,676.0 L764.0,681.0 L767.0,687.0 L771.0,691.0 L775.0,693.0 L777.0,693.0 L778.0,694.0 L783.0,694.0 L784.0,695.0 L792.0,695.0 L793.0,694.0 L795.0,694.0 L796.0,695.0 L804.0,695.0 L805.0,694.0 L811.0,693.0 L817.0,688.0 L819.0,689.0 L819.0,694.0 L830.0,694.0 L830.0,620.0 L819.0,620.0 L819.0,674.0 L818.0,675.0 L818.0,677.0 L814.0,682.0 L807.0,685.0 L784.0,685.0 L783.0,684.0 L779.0,683.0 L777.0,681.0 L775.0,677.0 L775.0,673.0 L774.0,672.0 L774.0,620.0 Z
M996.0,477.0 L996.0,478.0 L999.0,481.0 L999.0,482.0 L1002.0,485.0 L1005.0,490.0 L1009.0,494.0 L1009.0,495.0 L1021.0,510.0 L1023.0,514.0 L995.0,550.0 L995.0,552.0 L1006.0,552.0 L1008.0,551.0 L1013.0,543.0 L1016.0,540.0 L1016.0,539.0 L1019.0,536.0 L1019.0,535.0 L1029.0,522.0 L1030.0,522.0 L1035.0,527.0 L1035.0,528.0 L1038.0,531.0 L1038.0,532.0 L1041.0,535.0 L1041.0,536.0 L1044.0,539.0 L1044.0,540.0 L1047.0,543.0 L1047.0,544.0 L1053.0,552.0 L1066.0,552.0 L1066.0,551.0 L1062.0,547.0 L1059.0,542.0 L1055.0,538.0 L1055.0,537.0 L1037.0,514.0 L1039.0,510.0 L1042.0,507.0 L1042.0,506.0 L1045.0,503.0 L1045.0,502.0 L1048.0,499.0 L1051.0,494.0 L1055.0,490.0 L1055.0,489.0 L1058.0,486.0 L1058.0,485.0 L1061.0,482.0 L1064.0,477.0 L1051.0,477.0 L1051.0,478.0 L1048.0,481.0 L1046.0,485.0 L1043.0,488.0 L1041.0,492.0 L1031.0,505.0 L1029.0,505.0 L1028.0,504.0 L1028.0,503.0 L1019.0,492.0 L1017.0,488.0 L1011.0,481.0 L1009.0,477.0 Z
M1084.0,456.0 L1084.0,475.0 L1083.0,476.0 L1075.0,476.0 L1073.0,477.0 L1073.0,486.0 L1083.0,486.0 L1084.0,487.0 L1084.0,535.0 L1085.0,536.0 L1086.0,542.0 L1090.0,547.0 L1098.0,551.0 L1103.0,551.0 L1104.0,552.0 L1119.0,552.0 L1120.0,551.0 L1122.0,551.0 L1122.0,542.0 L1121.0,541.0 L1101.0,541.0 L1096.0,536.0 L1096.0,534.0 L1095.0,533.0 L1095.0,487.0 L1096.0,486.0 L1122.0,486.0 L1122.0,477.0 L1120.0,477.0 L1119.0,476.0 L1110.0,476.0 L1109.0,477.0 L1107.0,477.0 L1106.0,476.0 L1096.0,476.0 L1095.0,475.0 L1095.0,456.0 L1093.0,455.0 L1087.0,455.0 L1086.0,456.0 Z
M867.0,455.0 L866.0,456.0 L866.0,476.0 L865.0,477.0 L854.0,477.0 L854.0,485.0 L855.0,486.0 L865.0,486.0 L866.0,487.0 L866.0,535.0 L867.0,536.0 L868.0,542.0 L872.0,547.0 L880.0,551.0 L885.0,551.0 L886.0,552.0 L901.0,552.0 L903.0,551.0 L903.0,541.0 L884.0,541.0 L878.0,536.0 L878.0,534.0 L877.0,533.0 L877.0,487.0 L878.0,486.0 L903.0,486.0 L903.0,477.0 L899.0,477.0 L898.0,476.0 L895.0,476.0 L894.0,477.0 L878.0,476.0 L877.0,475.0 L877.0,455.0 Z
M893.0,598.0 L892.0,599.0 L892.0,619.0 L891.0,620.0 L881.0,620.0 L881.0,629.0 L891.0,629.0 L892.0,630.0 L892.0,677.0 L893.0,678.0 L893.0,682.0 L895.0,686.0 L900.0,691.0 L904.0,693.0 L906.0,693.0 L907.0,694.0 L929.0,694.0 L929.0,692.0 L930.0,691.0 L930.0,685.0 L929.0,684.0 L910.0,684.0 L908.0,683.0 L904.0,678.0 L904.0,675.0 L903.0,674.0 L903.0,631.0 L905.0,629.0 L929.0,629.0 L930.0,622.0 L929.0,620.0 L905.0,620.0 L903.0,618.0 L903.0,598.0 Z
M187.0,740.0 L187.0,743.0 L186.0,744.0 L186.0,759.0 L187.0,760.0 L186.0,782.0 L187.0,783.0 L187.0,787.0 L189.0,791.0 L194.0,797.0 L201.0,800.0 L300.0,800.0 L300.0,795.0 L299.0,794.0 L299.0,792.0 L202.0,792.0 L200.0,791.0 L195.0,785.0 L195.0,741.0 L191.0,738.0 Z
M852.0,587.0 L852.0,694.0 L863.0,694.0 L863.0,587.0 Z
M282.0,621.0 L282.0,632.0 L386.0,632.0 L389.0,629.0 L389.0,624.0 L386.0,621.0 Z
M928.0,494.0 L930.0,490.0 L932.0,488.0 L936.0,486.0 L967.0,486.0 L971.0,488.0 L973.0,490.0 L975.0,494.0 L975.0,508.0 L974.0,509.0 L970.0,509.0 L969.0,510.0 L962.0,510.0 L961.0,509.0 L950.0,509.0 L949.0,510.0 L945.0,510.0 L944.0,509.0 L928.0,509.0 L927.0,508.0 Z
M688.0,668.0 L690.0,664.0 L695.0,661.0 L733.0,661.0 L734.0,662.0 L734.0,667.0 L733.0,668.0 L733.0,677.0 L732.0,679.0 L728.0,683.0 L726.0,684.0 L723.0,684.0 L722.0,685.0 L696.0,685.0 L695.0,684.0 L693.0,684.0 L688.0,678.0 Z
M189.0,609.0 L193.0,609.0 L198.0,615.0 L198.0,618.0 L197.0,620.0 L194.0,623.0 L192.0,623.0 L191.0,624.0 L187.0,623.0 L184.0,619.0 L184.0,613.0 Z" fill="#f2eee6"/>
    <path id="cyan-trace" d="M420.0,539.0 L416.0,538.0 L415.0,537.0 L408.0,537.0 L404.0,539.0 L398.0,546.0 L279.0,546.0 L273.0,551.0 L271.0,555.0 L271.0,698.0 L272.0,699.0 L272.0,701.0 L277.0,706.0 L279.0,707.0 L398.0,707.0 L404.0,714.0 L408.0,716.0 L414.0,716.0 L415.0,715.0 L417.0,715.0 L424.0,709.0 L424.0,707.0 L425.0,706.0 L425.0,699.0 L423.0,695.0 L419.0,691.0 L415.0,690.0 L414.0,689.0 L408.0,689.0 L404.0,691.0 L399.0,697.0 L283.0,697.0 L281.0,695.0 L281.0,558.0 L285.0,555.0 L398.0,555.0 L404.0,562.0 L406.0,563.0 L409.0,563.0 L410.0,564.0 L413.0,564.0 L414.0,563.0 L417.0,563.0 L419.0,561.0 L420.0,561.0 L423.0,558.0 L424.0,554.0 L425.0,553.0 L425.0,547.0 L424.0,546.0 L424.0,544.0 Z
M766.0,758.0 L761.0,764.0 L761.0,779.0 L760.0,780.0 L760.0,787.0 L761.0,788.0 L761.0,792.0 L762.0,794.0 L766.0,798.0 L768.0,799.0 L772.0,799.0 L773.0,800.0 L775.0,799.0 L788.0,799.0 L791.0,797.0 L793.0,797.0 L794.0,798.0 L794.0,809.0 L790.0,813.0 L771.0,813.0 L767.0,809.0 L767.0,806.0 L762.0,806.0 L761.0,807.0 L762.0,813.0 L766.0,817.0 L768.0,818.0 L771.0,818.0 L772.0,819.0 L789.0,819.0 L790.0,818.0 L793.0,818.0 L798.0,814.0 L800.0,810.0 L800.0,757.0 L794.0,757.0 L793.0,759.0 L791.0,759.0 L788.0,757.0 L769.0,757.0 L768.0,758.0 Z
M990.0,758.0 L985.0,763.0 L985.0,766.0 L984.0,767.0 L984.0,790.0 L985.0,791.0 L986.0,795.0 L991.0,799.0 L995.0,799.0 L996.0,800.0 L998.0,800.0 L999.0,799.0 L1001.0,799.0 L1002.0,800.0 L1011.0,800.0 L1012.0,799.0 L1016.0,799.0 L1020.0,797.0 L1023.0,792.0 L1023.0,788.0 L1017.0,788.0 L1017.0,791.0 L1013.0,794.0 L995.0,794.0 L993.0,793.0 L990.0,789.0 L990.0,782.0 L991.0,781.0 L1022.0,781.0 L1023.0,780.0 L1023.0,766.0 L1022.0,765.0 L1021.0,761.0 L1019.0,759.0 L1015.0,757.0 L992.0,757.0 Z
M589.0,741.0 L589.0,799.0 L632.0,799.0 L632.0,794.0 L596.0,794.0 L595.0,793.0 L595.0,774.0 L596.0,773.0 L627.0,773.0 L628.0,772.0 L627.0,770.0 L627.0,767.0 L596.0,767.0 L595.0,766.0 L595.0,747.0 L596.0,746.0 L632.0,746.0 L632.0,741.0 Z
M770.0,763.0 L772.0,763.0 L773.0,762.0 L788.0,762.0 L794.0,767.0 L794.0,788.0 L790.0,793.0 L788.0,794.0 L772.0,794.0 L767.0,790.0 L767.0,781.0 L766.0,780.0 L766.0,775.0 L767.0,774.0 L767.0,766.0 Z
M452.0,623.0 L452.0,630.0 L454.0,632.0 L457.0,632.0 L458.0,633.0 L504.0,633.0 L508.0,630.0 L508.0,623.0 L504.0,620.0 L462.0,620.0 L461.0,621.0 L454.0,621.0 Z
M452.0,660.0 L452.0,667.0 L456.0,670.0 L504.0,670.0 L508.0,667.0 L508.0,661.0 L506.0,658.0 L455.0,658.0 Z
M452.0,587.0 L452.0,593.0 L456.0,596.0 L504.0,596.0 L508.0,593.0 L508.0,586.0 L506.0,584.0 L455.0,584.0 L453.0,585.0 Z
M901.0,757.0 L901.0,799.0 L907.0,799.0 L906.0,797.0 L906.0,783.0 L907.0,782.0 L906.0,769.0 L907.0,768.0 L907.0,766.0 L910.0,763.0 L912.0,763.0 L913.0,762.0 L927.0,762.0 L928.0,763.0 L930.0,763.0 L932.0,765.0 L933.0,767.0 L933.0,799.0 L939.0,799.0 L939.0,765.0 L937.0,761.0 L935.0,759.0 L931.0,757.0 L913.0,757.0 L908.0,760.0 L906.0,759.0 L906.0,757.0 Z
M677.0,757.0 L677.0,799.0 L682.0,799.0 L682.0,769.0 L683.0,768.0 L683.0,766.0 L686.0,763.0 L688.0,763.0 L689.0,762.0 L703.0,762.0 L704.0,763.0 L706.0,763.0 L708.0,765.0 L709.0,767.0 L709.0,799.0 L715.0,799.0 L715.0,766.0 L714.0,765.0 L713.0,761.0 L711.0,759.0 L707.0,757.0 L689.0,757.0 L684.0,760.0 L682.0,759.0 L682.0,757.0 Z
M990.0,767.0 L991.0,765.0 L995.0,762.0 L1012.0,762.0 L1014.0,763.0 L1017.0,767.0 L1017.0,775.0 L1016.0,776.0 L991.0,776.0 L990.0,775.0 Z
M848.0,757.0 L847.0,758.0 L847.0,799.0 L853.0,799.0 L853.0,757.0 Z
M189.0,712.0 L186.0,715.0 L186.0,721.0 L189.0,723.0 L192.0,723.0 L195.0,721.0 L195.0,715.0 L193.0,713.0 Z
M190.0,689.0 L186.0,692.0 L186.0,698.0 L189.0,700.0 L192.0,700.0 L195.0,698.0 L195.0,692.0 L193.0,690.0 Z
M188.0,667.0 L186.0,669.0 L186.0,675.0 L189.0,677.0 L192.0,677.0 L195.0,675.0 L195.0,669.0 L192.0,667.0 Z
M187.0,645.0 L186.0,646.0 L186.0,652.0 L189.0,654.0 L193.0,654.0 L195.0,652.0 L195.0,646.0 L191.0,644.0 Z
M849.0,739.0 L847.0,740.0 L847.0,747.0 L848.0,748.0 L852.0,748.0 L854.0,747.0 L854.0,740.0 L852.0,739.0 Z" fill="#00c3e6"/>
  </g>
</svg>
